<?xml version="1.0" encoding="UTF-8" standalone="no"?>
<svg
   height="467.38"
   id="svg30"
   version="1.1"
   viewBox="0 0 467.72198 467.38"
   width="467.72198"
   xml:space="preserve"
   sodipodi:docname="2541663_desktop_mobile_phone_responsive_icon.svg"
   inkscape:version="1.1.2 (0a00cf5339, 2022-02-04)"
   xmlns:inkscape="http://www.inkscape.org/namespaces/inkscape"
   xmlns:sodipodi="http://sodipodi.sourceforge.net/DTD/sodipodi-0.dtd"
   xmlns="http://www.w3.org/2000/svg"
   xmlns:svg="http://www.w3.org/2000/svg"><sodipodi:namedview
     id="namedview18"
     pagecolor="#ffffff"
     bordercolor="#666666"
     borderopacity="1.0"
     inkscape:pageshadow="2"
     inkscape:pageopacity="0.0"
     inkscape:pagecheckerboard="0"
     showgrid="false"
     inkscape:zoom="0.35553531"
     inkscape:cx="-520.34213"
     inkscape:cy="299.54831"
     inkscape:window-width="1316"
     inkscape:window-height="704"
     inkscape:window-x="0"
     inkscape:window-y="0"
     inkscape:window-maximized="1"
     inkscape:current-layer="g26" /><defs
     id="defs34" /><g
     id="window_screen_with_mobile_icon"
     transform="translate(-22.139,-22.31)"><g
       id="g26"><path
         d="m 256.168,22.31 c 128.777,0 233.693,104.911 233.693,233.69 0,129.113 -104.916,233.69 -233.693,233.69 C 127.043,489.69 22.139,385.113 22.139,256 22.139,127.221 127.043,22.31 256.168,22.31 Z"
         id="path4"
         style="clip-rule:evenodd;fill:#afc6e9;fill-rule:evenodd"
         inkscape:export-filename="/home/marc/Downloads/text2839-5.png"
         inkscape:export-xdpi="26.27"
         inkscape:export-ydpi="26.27" /><path
         d="m 486.836,219.353 c 2.019,11.758 3.025,24.202 3.025,36.647 0,122.395 -93.813,222.601 -213.516,233.022 L 124.356,372.001 c 0,-5.373 3.703,-7.721 3.703,-12.77 v 0 c 0,-57.833 0,-115.676 0,-173.519 0,-9.057 0,-17.808 0,-26.541 0,-5.392 0,-10.774 0,-15.813 5.378,0 10.755,0 15.797,0 77.338,0 154.678,0 231.679,0 l 12.106,-3.025 c 4.372,6.719 97.844,79.02 99.195,79.02 z"
         id="path6"
         style="clip-rule:evenodd;fill:#87aade;fill-rule:evenodd"
         inkscape:export-filename="/home/marc/Downloads/text2839-5.png"
         inkscape:export-xdpi="26.27"
         inkscape:export-ydpi="26.27" /><path
         d="m 140.158,182.706 h 231.68 v 173.5 h -231.68 z m 247.484,173.5 v 15.795 h -15.804 -231.68 -15.802 v -15.795 0 -173.5 -26.569 -15.804 h 15.802 231.68 15.804 v 15.804 26.569 z"
         id="path8"
         style="clip-rule:evenodd;fill:#324a5e;fill-rule:evenodd"
         inkscape:export-filename="/home/marc/Downloads/text2839-5.png"
         inkscape:export-xdpi="26.27"
         inkscape:export-ydpi="26.27" /><path
         d="m 321.734,161.501 c 0,5.735 4.71,10.431 10.765,10.431 5.707,0 10.422,-4.695 10.422,-10.431 0,-6.041 -4.715,-10.736 -10.422,-10.736 -6.055,0 -10.765,4.695 -10.765,10.736 z"
         id="path10"
         style="clip-rule:evenodd;fill:#90dfaa;fill-rule:evenodd"
         inkscape:export-filename="/home/marc/Downloads/text2839-5.png"
         inkscape:export-xdpi="26.27"
         inkscape:export-ydpi="26.27" /><path
         d="m 350.651,161.501 c 0,5.735 4.714,10.431 10.765,10.431 5.717,0 10.422,-4.695 10.422,-10.431 0,-6.041 -4.705,-10.736 -10.422,-10.736 -6.051,0 -10.765,4.695 -10.765,10.736 z"
         id="path12"
         style="clip-rule:evenodd;fill:#ffd05b;fill-rule:evenodd"
         inkscape:export-filename="/home/marc/Downloads/text2839-5.png"
         inkscape:export-xdpi="26.27"
         inkscape:export-ydpi="26.27" /><path
         d="m 292.822,161.501 c 0,5.735 4.7,10.431 10.422,10.431 6.046,0 10.75,-4.695 10.75,-10.431 0,-6.041 -4.704,-10.736 -10.75,-10.736 -5.722,0 -10.422,4.695 -10.422,10.736 z"
         id="path14"
         style="clip-rule:evenodd;fill:#fd8469;fill-rule:evenodd"
         inkscape:export-filename="/home/marc/Downloads/text2839-5.png"
         inkscape:export-xdpi="26.27"
         inkscape:export-ydpi="26.27" /><rect
         height="173.5"
         id="rect16"
         style="clip-rule:evenodd;fill:#ffffff;fill-rule:evenodd"
         width="231.67999"
         x="140.158"
         y="182.70599"
         inkscape:export-filename="/home/marc/Downloads/text2839-5.png"
         inkscape:export-xdpi="26.27"
         inkscape:export-ydpi="26.27" /><path
         d="m 412.521,239.528 h -93.479 v 147.275 h 93.479 z m -40.349,158.365 c 0,-3.693 -2.691,-6.719 -6.39,-6.719 -3.699,0 -6.39,3.025 -6.39,6.719 0,3.368 2.691,6.394 6.39,6.394 3.699,0 6.39,-3.026 6.39,-6.394 z M 350.651,229.774 c 0,1.002 0.673,1.68 1.345,1.68 h 27.581 c 0.668,0 1.336,-0.678 1.336,-1.68 0,-0.668 -0.668,-1.68 -1.336,-1.68 h -27.581 c -0.672,0.001 -1.345,1.012 -1.345,1.68 z m 70.951,2.014 v 166.104 c 0,7.071 -6.055,12.778 -13.117,12.778 H 323.08 c -7.067,0 -13.117,-5.707 -13.117,-12.778 V 231.788 c 0,-7.053 6.05,-12.778 13.117,-12.778 h 85.404 c 7.063,0 13.118,5.725 13.118,12.778 z"
         id="path18"
         style="clip-rule:evenodd;fill:#253645;fill-rule:evenodd"
         inkscape:export-filename="/home/marc/Downloads/text2839-5.png"
         inkscape:export-xdpi="26.27"
         inkscape:export-ydpi="26.27" /><rect
         height="150.987"
         id="rect20"
         style="clip-rule:evenodd;fill:#ffffff;fill-rule:evenodd"
         width="95.497002"
         x="318.03601"
         y="237.505"
         inkscape:export-filename="/home/marc/Downloads/text2839-5.png"
         inkscape:export-xdpi="26.27"
         inkscape:export-ydpi="26.27" /><path
         d="m 365.782,391.174 c -3.698,0 -6.39,3.025 -6.39,6.719 0,3.368 2.691,6.394 6.39,6.394 3.699,0 6.39,-3.025 6.39,-6.394 0,-3.694 -2.692,-6.719 -6.39,-6.719 z"
         id="path22"
         style="clip-rule:evenodd;fill:#ffffff;fill-rule:evenodd"
         inkscape:export-filename="/home/marc/Downloads/text2839-5.png"
         inkscape:export-xdpi="26.27"
         inkscape:export-ydpi="26.27" /><path
         d="m 351.996,231.454 h 27.581 c 0.668,0 1.336,-0.678 1.336,-1.68 0,-0.668 -0.668,-1.68 -1.336,-1.68 h -27.581 c -0.672,0 -1.345,1.012 -1.345,1.68 0,1.002 0.673,1.68 1.345,1.68 z"
         id="path24"
         style="clip-rule:evenodd;fill:#ffffff;fill-rule:evenodd"
         inkscape:export-filename="/home/marc/Downloads/text2839-5.png"
         inkscape:export-xdpi="26.27"
         inkscape:export-ydpi="26.27" /><text
         xml:space="preserve"
         style="font-style:normal;font-weight:normal;font-size:40px;line-height:1.25;font-family:sans-serif;letter-spacing:0px;word-spacing:0px;fill:#808080;fill-opacity:1;stroke:none"
         x="150.50536"
         y="223.83655"
         id="text2839"
         inkscape:export-filename="/home/marc/Downloads/text2839-5.png"
         inkscape:export-xdpi="26.27"
         inkscape:export-ydpi="26.27"><tspan
           sodipodi:role="line"
           id="tspan2837"
           x="150.50536"
           y="223.83655">CLEAN</tspan><tspan
           sodipodi:role="line"
           x="150.50536"
           y="273.83655"
           id="tspan2841">THEME</tspan></text><text
         xml:space="preserve"
         style="font-style:normal;font-weight:normal;font-size:22.9114px;line-height:1.25;font-family:sans-serif;letter-spacing:0px;word-spacing:0px;fill:#808080;fill-opacity:1;stroke:none;stroke-width:0.572787"
         x="326.62891"
         y="267.62341"
         id="text2839-5"
         inkscape:export-filename="/home/marc/Downloads/text2839-5.png"
         inkscape:export-xdpi="26.27"
         inkscape:export-ydpi="26.27"><tspan
           sodipodi:role="line"
           id="tspan2837-3"
           x="326.62891"
           y="267.62341"
           style="stroke-width:0.572787">CLEAN</tspan><tspan
           sodipodi:role="line"
           x="326.62891"
           y="296.26266"
           id="tspan2841-5"
           style="stroke-width:0.572787">THEME</tspan></text></g></g><g
     id="Layer_1"
     transform="translate(-22.139,-22.31)" /></svg>
