<?xml version="1.0" encoding="UTF-8" standalone="no"?>
<svg
   version="1.1"
   id="Layer_1"
   x="0px"
   y="0px"
   viewBox="0 0 122.88 97.05"
   style="enable-background:new 0 0 122.88 97.05"
   xml:space="preserve"
   sodipodi:docname="module_image.svg"
   inkscape:version="1.1.2 (0a00cf5339, 2022-02-04)"
   inkscape:export-filename="/home/marc/www/hhdev/protected/modules/stories/resources/module_image.png"
   inkscape:export-xdpi="86.860001"
   inkscape:export-ydpi="86.860001"
   xmlns:inkscape="http://www.inkscape.org/namespaces/inkscape"
   xmlns:sodipodi="http://sodipodi.sourceforge.net/DTD/sodipodi-0.dtd"
   xmlns:xlink="http://www.w3.org/1999/xlink"
   xmlns="http://www.w3.org/2000/svg"
   xmlns:svg="http://www.w3.org/2000/svg"><defs
     id="defs9"><linearGradient
       inkscape:collect="always"
       id="linearGradient1095"><stop
         style="stop-color:#ce2c8d;stop-opacity:1;"
         offset="0"
         id="stop1091" /><stop
         style="stop-color:#ffffff;stop-opacity:1"
         offset="1"
         id="stop1093" /></linearGradient><linearGradient
       inkscape:collect="always"
       xlink:href="#linearGradient1095"
       id="linearGradient1097"
       x1="65.836899"
       y1="43.841801"
       x2="-4.2705827"
       y2="-88.977081"
       gradientUnits="userSpaceOnUse" /></defs><sodipodi:namedview
     id="namedview7"
     pagecolor="#ffffff"
     bordercolor="#666666"
     borderopacity="1.0"
     inkscape:pageshadow="2"
     inkscape:pageopacity="0.0"
     inkscape:pagecheckerboard="0"
     showgrid="false"
     inkscape:zoom="1.3704276"
     inkscape:cx="-4.3781955"
     inkscape:cy="61.659587"
     inkscape:window-width="1320"
     inkscape:window-height="704"
     inkscape:window-x="46"
     inkscape:window-y="27"
     inkscape:window-maximized="1"
     inkscape:current-layer="layer2" /><g
     inkscape:groupmode="layer"
     id="layer2"
     inkscape:label="Layer 2"><path
       sodipodi:type="star"
       style="fill:url(#linearGradient1097);fill-opacity:1;stroke:#3bb0f4;stroke-width:0;stroke-miterlimit:4;stroke-dasharray:none"
       id="path859"
       inkscape:flatsided="true"
       sodipodi:sides="4"
       sodipodi:cx="63.406307"
       sodipodi:cy="46.851624"
       sodipodi:r1="86.300095"
       sodipodi:r2="61.02338"
       sodipodi:arg1="0.78539816"
       sodipodi:arg2="1.5707963"
       inkscape:rounded="0.15"
       inkscape:randomized="0"
       d="m 124.42969,107.87501 c -12.94501,12.94501 -109.10175,12.94501 -122.0467647,0 -12.9450143,-12.945018 -12.9450143,-109.1017541 -4e-7,-122.046768 12.9450141,-12.945015 109.1017451,-12.945015 122.0467651,-10e-7 12.94501,12.9450144 12.94501,109.10175 0,122.046769 z"
       inkscape:export-filename="/home/marc/www/hhdev/protected/modules/module-model/resources/module_image.png"
       inkscape:export-xdpi="347.45001"
       inkscape:export-ydpi="347.45001" /></g><g
     inkscape:groupmode="layer"
     id="layer1"
     inkscape:label="Layer 1"><g
       id="g4"
       style="fill:#ffffff"
       transform="translate(2.0768972,-1.3482)"><path
         d="m 9.35,37.38 c 0.85,-0.9 2.27,-0.93 3.17,-0.08 0.9,0.85 0.93,2.27 0.08,3.16 l -7.26,7.6 7.26,7.62 c 0.85,0.9 0.82,2.31 -0.08,3.16 -0.9,0.85 -2.31,0.82 -3.17,-0.08 L 0.62,49.59 c -0.82,-0.86 -0.83,-2.22 0,-3.09 z m 65.63,9.19 -7.17,-6.88 -1.51,9.29 c -0.03,0.18 -0.08,0.37 -0.17,0.53 -0.08,0.16 -0.21,0.32 -0.36,0.44 -0.32,0.27 -0.73,0.39 -1.12,0.37 -0.39,-0.03 -0.77,-0.21 -1.05,-0.54 L 52.63,36.81 40.56,47.18 v 5.79 H 82.3 V 39.51 l -6.69,7.01 c -0.07,0.11 -0.2,0.18 -0.33,0.18 -0.13,-0.01 -0.23,-0.05 -0.3,-0.13 z m 0.26,-4.04 7.06,-7.74 V 20.02 h 0.01 -41.75 v 22.97 c 3.48,-3.15 7.66,-6.61 11.21,-9.59 0.32,-0.27 0.71,-0.39 1.08,-0.37 0.39,0.02 0.77,0.19 1.05,0.49 l 0.01,0.02 c 0.02,0.02 0.03,0.03 0.05,0.06 l 9.8,11.59 1.46,-8.94 c 0.08,-0.41 0.31,-0.75 0.62,-0.98 0.31,-0.22 0.71,-0.34 1.13,-0.27 l 0.04,0.01 c 0.15,0.03 0.29,0.08 0.42,0.14 0.14,0.07 0.27,0.16 0.39,0.27 z M 67.87,22.87 c 0.6,0 1.2,0.13 1.74,0.35 0.56,0.23 1.06,0.57 1.48,0.99 0.42,0.42 0.76,0.92 1,1.48 0.22,0.54 0.34,1.13 0.34,1.74 0,0.61 -0.13,1.2 -0.34,1.73 -0.23,0.56 -0.57,1.06 -0.99,1.48 -0.42,0.42 -0.92,0.76 -1.48,0.99 -0.54,0.23 -1.12,0.35 -1.73,0.35 -0.6,0 -1.2,-0.13 -1.74,-0.35 -0.56,-0.23 -1.05,-0.57 -1.48,-0.99 -0.42,-0.42 -0.76,-0.92 -1,-1.48 -0.22,-0.54 -0.34,-1.12 -0.34,-1.73 0,-0.6 0.13,-1.2 0.34,-1.74 0.23,-0.56 0.57,-1.06 0.99,-1.48 0.42,-0.42 0.92,-0.76 1.48,-0.99 0.53,-0.23 1.11,-0.35 1.73,-0.35 z m 1.37,3.19 c -0.18,-0.18 -0.39,-0.32 -0.63,-0.43 -0.22,-0.09 -0.48,-0.14 -0.74,-0.14 -0.26,0 -0.51,0.05 -0.74,0.14 -0.24,0.1 -0.45,0.25 -0.63,0.42 -0.18,0.18 -0.32,0.39 -0.42,0.63 -0.09,0.23 -0.14,0.48 -0.14,0.74 0,0.25 0.05,0.51 0.14,0.74 0.1,0.24 0.25,0.45 0.42,0.63 0.18,0.18 0.39,0.32 0.63,0.43 0.22,0.09 0.48,0.14 0.74,0.14 0.26,0 0.51,-0.05 0.74,-0.14 0.24,-0.1 0.45,-0.25 0.63,-0.42 0.18,-0.18 0.32,-0.39 0.42,-0.63 0.09,-0.23 0.14,-0.48 0.14,-0.74 0,-0.26 -0.05,-0.51 -0.14,-0.74 -0.1,-0.24 -0.25,-0.45 -0.42,-0.63 z M 39.83,83.73 c -1.39,0 -2.51,-1.13 -2.51,-2.51 0,-1.39 1.12,-2.51 2.51,-2.51 h 42.5 c 1.39,0 2.51,1.13 2.51,2.51 0,1.39 -1.12,2.51 -2.51,2.51 z M 40.3,71.65 c -1.39,0 -2.51,-1.13 -2.51,-2.51 0,-1.39 1.12,-2.51 2.51,-2.51 h 21.96 c 1.39,0 2.51,1.13 2.51,2.51 0,1.39 -1.12,2.51 -2.51,2.51 z m 0.63,-55.51 h 41.02 c 1.16,0 2.22,0.48 2.98,1.24 l 0.01,0.01 c 0.77,0.77 1.24,1.82 1.24,2.98 V 52.6 c 0,1.16 -0.48,2.22 -1.24,2.98 l -0.01,0.01 c -0.77,0.77 -1.82,1.24 -2.98,1.24 H 40.93 c -1.16,0 -2.22,-0.48 -2.98,-1.24 L 37.94,55.58 C 37.17,54.81 36.7,53.76 36.7,52.6 V 20.38 c 0,-1.16 0.48,-2.22 1.24,-2.98 l 0.01,-0.01 c 0.76,-0.77 1.82,-1.25 2.98,-1.25 z m 69.35,24.33 c -0.85,-0.9 -0.82,-2.31 0.08,-3.16 0.9,-0.85 2.31,-0.82 3.17,0.08 l 8.73,9.14 c 0.83,0.87 0.82,2.23 0,3.09 l -8.73,9.17 c -0.85,0.9 -2.27,0.93 -3.17,0.08 -0.9,-0.85 -0.93,-2.27 -0.08,-3.16 l 7.26,-7.62 z M 25.31,0 h 72.26 c 1.21,0 2.31,0.5 3.11,1.3 l 0.01,0.01 c 0.8,0.8 1.29,1.9 1.29,3.11 v 88.22 c 0,1.21 -0.5,2.31 -1.3,3.11 l -0.01,0.01 c -0.8,0.8 -1.9,1.29 -3.11,1.29 H 25.31 c -1.2,0 -2.31,-0.5 -3.11,-1.3 l -0.01,-0.01 c -0.8,-0.8 -1.29,-1.9 -1.29,-3.11 V 4.42 c 0,-1.21 0.5,-2.31 1.3,-3.11 L 22.21,1.3 C 23,0.49 24.1,0 25.31,0 Z M 97.5,4.47 H 25.37 v 88.1 H 97.52 V 4.47 Z"
         id="path2"
         style="fill:#ffffff" /></g></g></svg>
