<?xml version="1.0" encoding="UTF-8" standalone="no"?>
<svg
   version="1.1"
   id="Layer_1"
   x="0px"
   y="0px"
   viewBox="0 0 122.88 97.05"
   style="enable-background:new 0 0 122.88 97.05"
   xml:space="preserve"
   sodipodi:docname="module_image.svg"
   inkscape:version="1.1.2 (0a00cf5339, 2022-02-04)"
   inkscape:export-filename="/home/marc/www/hhdev/protected/modules/clean-theme/resources/module_image.png"
   inkscape:export-xdpi="347.45163"
   inkscape:export-ydpi="347.45163"
   xmlns:inkscape="http://www.inkscape.org/namespaces/inkscape"
   xmlns:sodipodi="http://sodipodi.sourceforge.net/DTD/sodipodi-0.dtd"
   xmlns:xlink="http://www.w3.org/1999/xlink"
   xmlns="http://www.w3.org/2000/svg"
   xmlns:svg="http://www.w3.org/2000/svg"><defs
     id="defs9"><linearGradient
       inkscape:collect="always"
       id="linearGradient1095"><stop
         style="stop-color:#ce2c8d;stop-opacity:1;"
         offset="0"
         id="stop1091" /><stop
         style="stop-color:#ffffff;stop-opacity:1"
         offset="1"
         id="stop1093" /></linearGradient><linearGradient
       inkscape:collect="always"
       xlink:href="#linearGradient1095"
       id="linearGradient1000"
       gradientUnits="userSpaceOnUse"
       x1="65.836899"
       y1="43.841801"
       x2="-4.2705827"
       y2="-88.977081" /></defs><sodipodi:namedview
     id="namedview7"
     pagecolor="#ffffff"
     bordercolor="#666666"
     borderopacity="1.0"
     inkscape:pageshadow="2"
     inkscape:pageopacity="0.0"
     inkscape:pagecheckerboard="0"
     showgrid="false"
     inkscape:zoom="1.3704276"
     inkscape:cx="36.484963"
     inkscape:cy="99.603948"
     inkscape:window-width="1320"
     inkscape:window-height="704"
     inkscape:window-x="46"
     inkscape:window-y="27"
     inkscape:window-maximized="1"
     inkscape:current-layer="layer2" /><g
     inkscape:groupmode="layer"
     id="layer2"
     inkscape:label="Layer 2"><path
       sodipodi:type="star"
       style="fill:url(#linearGradient1000);fill-opacity:1;stroke:#3bb0f4;stroke-width:0;stroke-miterlimit:4;stroke-dasharray:none"
       id="path859-7"
       inkscape:flatsided="true"
       sodipodi:sides="4"
       sodipodi:cx="63.406307"
       sodipodi:cy="46.851624"
       sodipodi:r1="86.300095"
       sodipodi:r2="61.02338"
       sodipodi:arg1="0.78539816"
       sodipodi:arg2="1.5707963"
       inkscape:rounded="0.15"
       inkscape:randomized="0"
       inkscape:export-filename="/home/marc/www/hhdev/protected/modules/module-model/resources/module_image.png"
       inkscape:export-xdpi="347.45001"
       inkscape:export-ydpi="347.45001"
       d="m 124.42969,107.87501 c -12.94501,12.94501 -109.10175,12.94501 -122.0467647,0 -12.9450143,-12.945018 -12.9450143,-109.1017541 -4e-7,-122.046768 12.9450141,-12.945015 109.1017451,-12.945015 122.0467651,-10e-7 12.94501,12.9450144 12.94501,109.10175 0,122.046769 z"
       transform="translate(-1.5204411,3.294316)" /></g><g
     inkscape:groupmode="layer"
     id="layer1"
     inkscape:label="Layer 1"><g
       id="g6"
       transform="matrix(0.93467982,0,0,0.93467982,4.7860189,8.7421805)"
       style="fill:#ffffff"><path
         class="st0"
         d="m 90.37,26.48 h 25.48 c 1.94,0 3.71,0.79 4.97,2.06 1.28,1.28 2.06,3.04 2.06,4.97 v 53.82 c 0,1.94 -0.79,3.71 -2.06,4.97 -1.28,1.28 -3.04,2.06 -4.97,2.06 H 90.37 c -1.94,0 -3.71,-0.79 -4.97,-2.06 -1.28,-1.28 -2.06,-3.04 -2.06,-4.97 V 33.5 c 0,-1.94 0.79,-3.71 2.06,-4.97 1.28,-1.28 3.03,-2.05 4.97,-2.05 z M 3.05,0 h 106.12 c 1.68,0 3.05,1.37 3.05,3.05 v 18.44 h -6.48 V 8.44 c 0,-1.48 -1.21,-2.7 -2.7,-2.7 H 9.17 v 0 c -1.48,0 -2.7,1.21 -2.7,2.7 v 52.53 c 0,1.48 1.21,2.7 2.7,2.7 H 76.7 V 76.4 H 3.05 C 1.37,76.4 0,75.03 0,73.35 V 3.05 C 0,1.37 1.37,0 3.05,0 Z m 39.22,80.61 h 27.67 c 0.07,4.79 2.04,9.07 7.39,12.45 H 34.89 c 4.27,-3.1 7.4,-6.87 7.38,-12.45 z M 56.11,66.12 c 2.16,0 3.92,1.75 3.92,3.92 0,2.16 -1.76,3.92 -3.92,3.92 -2.16,0 -3.92,-1.75 -3.92,-3.92 0,-2.16 1.75,-3.92 3.92,-3.92 z m 46.99,19.6 c 1.59,0 2.89,1.28 2.89,2.89 0,1.59 -1.28,2.89 -2.89,2.89 -1.59,0 -2.89,-1.28 -2.89,-2.89 0,-1.59 1.28,-2.89 2.89,-2.89 z m -16.8,-2.2 h 33.61 V 37.37 H 86.3 Z"
         id="path4"
         style="fill:#ffffff" /></g></g></svg>
